<svg xmlns="http://www.w3.org/2000/svg"  viewBox="0 0 23 23">
  <defs>
    <style>
      .cls-1 {
        fill: #ffb813;
      }

      .cls-2, .cls-3 {
        stroke: none;
      }

      .cls-3 {
        fill: #ffb813;
      }
    </style>
  </defs>
  <g id="for_you_icon_black" data-name="for you icon black" class="cls-1">
    <path class="cls-2" d="M 5.71091365814209 21.12848091125488 L 6.736380100250244 14.83874988555908 L 6.817580223083496 14.34070014953613 L 6.465169906616211 13.97949981689453 L 2.074688911437988 9.479497909545898 L 8.097590446472168 8.558859825134277 L 8.624979972839355 8.478240013122559 L 8.851710319519043 7.99528980255127 L 11.50009441375732 2.353833675384521 L 14.14661979675293 7.995059967041016 L 14.37329006195068 8.478240013122559 L 14.90087032318115 8.558859825134277 L 20.92509651184082 9.479517936706543 L 16.53408050537109 13.97945022583008 L 16.18157958984375 14.34068965911865 L 16.26284980773926 14.83883953094482 L 17.28886222839355 21.12825584411621 L 11.9842700958252 18.19520950317383 L 11.50041961669922 17.92766952514648 L 11.01655006408691 18.19518089294434 L 5.71091365814209 21.12848091125488 Z"/>
    <path class="cls-3" d="M 7.029248237609863 19.25696563720703 L 11.50043964385986 16.78499984741211 L 15.97028827667236 19.2564868927002 L 15.11336040496826 14.00354957580566 L 18.85019111633301 10.17403602600098 L 13.69464015960693 9.386130332946777 L 11.49978923797607 4.707677364349365 L 9.30348014831543 9.386150360107422 L 4.149394989013672 10.17398262023926 L 7.885749816894531 14.00354957580566 L 7.029248237609863 19.25696563720703 M 18.60741996765137 23 L 11.50039005279541 19.07033920288086 L 4.392580032348633 23 L 5.749410152435303 14.67784023284912 L -1.77635683940025e-15 8.78501033782959 L 7.946489810943604 7.570340156555176 L 11.50039005279541 -1.77635683940025e-15 L 15.05193996429443 7.570340156555176 L 23 8.78501033782959 L 17.24979972839355 14.67784023284912 L 18.60741996765137 23 Z"/>
  </g>
</svg>
