<svg xmlns="http://www.w3.org/2000/svg"  viewBox="0 0 23 23">
  <defs>
    <style>
      .cls-1 {
        fill: none;
      }

      .cls-2, .cls-3 {
        stroke: none;
      }

      .cls-3 {
        fill: #ffb813;
      }
    </style>
  </defs>
  <g id="for_you_icon_black" data-name="for you icon black" class="cls-1">
    <path class="cls-2" d="M11.5,19.07,4.393,23l1.357-8.322L0,8.785,7.946,7.57,11.5,0l3.552,7.57L23,8.785l-5.75,5.893L18.607,23Z"/>
    <path class="cls-3" d="M 7.029248237609863 19.25696563720703 L 11.50043964385986 16.78499984741211 L 15.97028827667236 19.2564868927002 L 15.11336040496826 14.00354957580566 L 18.85019111633301 10.17403602600098 L 13.69464015960693 9.386130332946777 L 11.49978923797607 4.707677364349365 L 9.30348014831543 9.386150360107422 L 4.149394989013672 10.17398262023926 L 7.885749816894531 14.00354957580566 L 7.029248237609863 19.25696563720703 M 18.60741996765137 23 L 11.50039005279541 19.07033920288086 L 4.392580032348633 23 L 5.749410152435303 14.67784023284912 L -1.77635683940025e-15 8.78501033782959 L 7.946489810943604 7.570340156555176 L 11.50039005279541 -1.77635683940025e-15 L 15.05193996429443 7.570340156555176 L 23 8.78501033782959 L 17.24979972839355 14.67784023284912 L 18.60741996765137 23 Z"/>
  </g>
</svg>
