<svg xmlns="http://www.w3.org/2000/svg" viewBox="0 0 23 23">
  <g id="star_h" transform="translate(-848.358 -4004.139)">
    <g id="Path" transform="translate(848.358 4004.139)" fill="none">
      <path d="M15.052,7.57,11.5,0,7.947,7.57,0,8.785l5.749,5.892L4.393,23,11.5,19.071,18.608,23,17.25,14.678,23,8.785Z" stroke="none"/>
      <path d="M 11.49977684020996 4.707538604736328 L 9.303762435913086 9.38587760925293 L 4.149341583251953 10.1739673614502 L 7.885472297668457 14.00314712524414 L 7.029115676879883 19.25698280334473 L 11.50011253356934 16.78522682189941 L 15.97040176391602 19.256591796875 L 15.11327266693115 14.00314712524414 L 18.85025024414063 10.17397022247314 L 13.69497299194336 9.38587760925293 L 11.49977684020996 4.707538604736328 M 11.50011253356934 -1.9073486328125e-06 L 15.05220222473145 7.570127487182617 L 23.00022315979004 8.785147666931152 L 17.24974250793457 14.67749786376953 L 18.60757255554199 22.99981689453125 L 11.50011253356934 19.07051849365234 L 4.39265251159668 22.99981689453125 L 5.749162673950195 14.67749786376953 L 1.9073486328125e-06 8.785147666931152 L 7.94670295715332 7.570127487182617 L 11.50011253356934 -1.9073486328125e-06 Z" stroke="none" fill="#ffb813"/>
    </g>
    <path id="Path_451" data-name="Path 451" d="M6510.858,18490.334v-16.084l-3.233,6.906-7.5,1.031,5.625,5.563-1.625,7.875s5.483-3.646,6.733-4.312" transform="translate(-5651 -14469)" fill="#ffb813"/>
  </g>
</svg>
